<svg version="1.1" id="Layer_1" xmlns="http://www.w3.org/2000/svg" xmlns:xlink="http://www.w3.org/1999/xlink" x="0px" y="0px"
	 width="100%" viewBox="0 0 500 500" enable-background="new 0 0 500 500" xml:space="preserve">
<path fill="none"
	d="
M1.000000,188.000000 
	C1.000000,125.348854 1.000000,63.197712 1.000000,1.023283 
	C167.609528,1.023283 334.219055,1.023283 500.914307,1.023283 
	C500.914307,167.567871 500.914307,334.135803 500.914307,500.851868 
	C334.333435,500.851868 167.666733,500.851868 1.000000,500.851868 
	C1.000000,396.780792 1.000000,292.640411 1.000000,188.000000 
M402.910614,490.977631 
	C432.172241,490.977631 461.433899,490.977631 490.690674,490.977631 
	C490.690674,330.697601 490.690674,170.991501 490.690674,11.164383 
	C460.915344,11.164383 431.448944,11.164383 401.055664,11.017587 
	C301.862061,11.011714 202.668457,11.005276 103.474854,11.006833 
	C102.313782,11.006852 101.152702,11.110245 99.066452,11.012507 
	C69.813087,11.012507 40.559723,11.012507 11.308067,11.012507 
	C11.308067,171.266907 11.308067,331.040802 11.308067,490.835083 
	C41.073521,490.835083 70.530914,490.835083 100.915611,490.982605 
	C200.109406,490.988403 299.303192,490.994720 398.496979,490.993134 
	C399.658112,490.993134 400.819275,490.890594 402.910614,490.977631 
z"/>
<path fill="#F5F5F5" opacity="1.000000" stroke="none" 
	d="
M99.988312,490.835083 
	C70.530914,490.835083 41.073521,490.835083 11.308067,490.835083 
	C11.308067,331.040802 11.308067,171.266907 11.308067,11.012507 
	C40.559723,11.012507 69.813087,11.012507 99.686935,11.372709 
	C116.845665,27.988102 133.437393,44.189316 149.910583,60.510147 
	C180.520493,90.836922 211.075348,121.219322 241.608658,151.623230 
	C244.605225,154.607101 247.292542,157.901535 249.988861,161.366043 
	C220.134354,191.401886 190.414368,221.123489 160.977722,250.561752 
	C191.155685,280.978180 221.008682,311.067108 250.713394,341.448364 
	C248.984665,343.189331 247.353790,344.587036 245.831528,346.094421 
	C229.290375,362.474030 212.775543,378.880188 196.234985,395.260376 
	C176.951080,414.357269 157.626907,433.413574 138.362076,452.529694 
	C125.532875,465.259918 112.777000,478.064026 99.988312,490.835083 
z"/>
<path fill="#10DDC1" opacity="1.000000" stroke="none" 
	d="
M401.982544,11.164379 
	C431.448944,11.164383 460.915344,11.164383 490.690674,11.164383 
	C490.690674,170.991501 490.690674,330.697601 490.690674,490.977631 
	C461.433899,490.977631 432.172241,490.977631 402.293579,490.620422 
	C382.414032,471.148682 363.155029,452.030640 343.888123,432.920563 
	C324.308411,413.500153 304.677338,394.131256 285.153656,374.654694 
	C273.963287,363.491211 262.941925,352.158356 251.975052,340.586914 
	C279.927429,312.493347 307.750000,284.715424 335.570404,256.935303 
	C341.512085,251.002228 341.541718,250.964813 335.424530,244.930466 
	C313.119873,222.927673 290.740997,200.999847 268.505371,178.927628 
	C262.737854,173.202499 257.390045,167.054535 251.983444,160.782074 
	C263.755829,148.788986 275.329773,137.049484 287.047241,125.455002 
	C306.165619,106.537285 325.454803,87.791840 344.528412,68.829369 
	C363.770752,49.699184 382.838379,30.393291 401.982544,11.164379 
z"/>
<path fill="#82E9DB" opacity="1.000000" stroke="none" 
	d="
M401.519104,11.090981 
	C382.838379,30.393291 363.770752,49.699184 344.528412,68.829369 
	C325.454803,87.791840 306.165619,106.537285 287.047241,125.455002 
	C275.329773,137.049484 263.755829,148.788986 251.696518,160.763657 
	C250.891541,161.059906 250.507477,161.055862 250.123413,161.051804 
	C247.292542,157.901535 244.605225,154.607101 241.608658,151.623230 
	C211.075348,121.219322 180.520493,90.836922 149.910583,60.510147 
	C133.437393,44.189316 116.845665,27.988102 100.149521,11.449147 
	C101.152702,11.110245 102.313782,11.006852 103.474854,11.006833 
	C202.668457,11.005276 301.862061,11.011714 401.519104,11.090981 
z"/>
<path fill="#82E9DB" opacity="1.000000" stroke="none" 
	d="
M251.844467,340.901764 
	C262.941925,352.158356 273.963287,363.491211 285.153656,374.654694 
	C304.677338,394.131256 324.308411,413.500153 343.888123,432.920563 
	C363.155029,452.030640 382.414032,471.148682 401.828461,490.549561 
	C400.819275,490.890594 399.658112,490.993134 398.496979,490.993134 
	C299.303192,490.994720 200.109406,490.988403 100.451965,490.908844 
	C112.777000,478.064026 125.532875,465.259918 138.362076,452.529694 
	C157.626907,433.413574 176.951080,414.357269 196.234985,395.260376 
	C212.775543,378.880188 229.290375,362.474030 245.831528,346.094421 
	C247.353790,344.587036 248.984665,343.189331 250.948944,341.344055 
	C251.503342,340.932159 251.673904,340.916962 251.844467,340.901764 
z"/>
<path fill="#000000" opacity="1.000000" stroke="none" 
	d="
M251.975052,340.586914 
	C251.673904,340.916962 251.503342,340.932159 251.097229,341.051697 
	C221.008682,311.067108 191.155685,280.978180 160.977722,250.561752 
	C190.414368,221.123489 220.134354,191.401886 249.988861,161.366043 
	C250.507477,161.055862 250.891541,161.059906 251.562531,161.082367 
	C257.390045,167.054535 262.737854,173.202499 268.505371,178.927628 
	C290.740997,200.999847 313.119873,222.927673 335.424530,244.930466 
	C341.541718,250.964813 341.512085,251.002228 335.570404,256.935303 
	C307.750000,284.715424 279.927429,312.493347 251.975052,340.586914 
z"/>
</svg>
