<?xml version="1.0" standalone="no"?>
<!DOCTYPE svg PUBLIC "-//W3C//DTD SVG 20010904//EN"
 "http://www.w3.org/TR/2001/REC-SVG-20010904/DTD/svg10.dtd">
<svg version="1.0" xmlns="http://www.w3.org/2000/svg"
 width="929.000000pt" height="93.000000pt" viewBox="0 0 929.000000 93.000000"
 preserveAspectRatio="xMidYMid meet">

<g transform="translate(0.000000,93.000000) scale(0.100000,-0.100000)"
fill="#000000" stroke="none">
<path d="M6440 460 l0 -440 80 0 80 0 0 94 0 94 40 36 c22 20 44 36 48 36 4 0
48 -58 97 -130 l88 -130 84 0 c68 0 82 3 76 13 -4 8 -59 86 -121 175 -63 88
-113 164 -113 169 1 4 45 57 99 117 142 160 138 146 40 146 l-83 -1 -120 -134
c-66 -74 -123 -135 -127 -135 -5 0 -8 119 -8 265 l0 265 -80 0 -80 0 0 -440z"/>
<path d="M37 828 c9 -24 85 -214 169 -423 l152 -380 73 0 72 0 59 140 c32 77
65 156 74 175 l17 35 14 -35 c8 -19 42 -99 75 -178 l61 -143 70 3 71 3 168
415 c92 228 168 418 168 423 0 4 -39 7 -87 7 l-88 0 -59 -163 c-138 -382 -179
-488 -186 -480 -10 11 -100 241 -100 255 0 9 90 255 135 371 7 16 1 18 -70 15
l-78 -3 -45 -132 c-24 -73 -47 -133 -51 -133 -3 0 -26 59 -50 131 -23 72 -48
132 -55 135 -7 3 -42 4 -78 2 l-65 -3 72 -191 72 -191 -51 -132 c-28 -72 -53
-131 -56 -131 -3 0 -59 146 -124 325 l-119 325 -88 0 -89 0 17 -42z"/>
<path d="M7560 445 l0 -425 80 0 80 0 2 278 3 277 110 -208 110 -208 45 3 45
3 105 197 c58 109 107 200 110 202 3 3 6 -118 5 -269 l-1 -275 83 0 83 0 0
425 0 425 -89 0 -89 0 -115 -222 c-64 -123 -122 -231 -129 -240 -11 -15 -28
12 -137 222 l-125 240 -88 0 -88 0 0 -425z"/>
<path d="M2150 740 l0 -100 -40 0 -40 0 0 -60 0 -60 39 0 40 0 3 -214 c3 -213
3 -215 28 -242 50 -54 138 -69 236 -39 76 23 75 22 57 92 -14 57 -17 61 -35
52 -10 -5 -37 -11 -59 -12 -65 -2 -69 10 -69 200 l0 163 65 0 65 0 0 60 0 60
-65 0 -65 0 0 100 0 100 -80 0 -80 0 0 -100z"/>
<path d="M3695 641 c-23 -10 -60 -40 -83 -66 l-42 -48 0 57 0 56 -75 0 -75 0
0 -310 0 -310 80 0 80 0 0 194 c0 193 0 195 25 224 30 36 82 62 144 71 l46 6
3 73 3 72 -33 0 c-18 0 -51 -9 -73 -19z"/>
<path d="M6185 641 c-23 -10 -60 -40 -83 -66 l-42 -48 0 57 0 56 -75 0 -75 0
0 -310 0 -310 80 0 80 0 0 194 c0 193 0 195 25 224 30 36 82 62 144 71 l46 6
3 73 3 72 -33 0 c-18 0 -51 -9 -73 -19z"/>
<path d="M1512 640 c-58 -12 -151 -56 -158 -74 -5 -12 30 -96 40 -96 2 0 34
14 70 31 59 28 75 31 138 27 64 -3 73 -7 99 -36 22 -24 29 -42 29 -72 l0 -40
-42 7 c-24 5 -79 8 -124 7 -68 0 -90 -5 -138 -28 -199 -98 -123 -356 105 -356
63 0 148 32 184 70 33 35 45 38 45 11 0 -51 67 -88 137 -75 l33 6 0 62 c0 49
-4 63 -19 73 -17 11 -20 27 -23 170 -3 171 -9 191 -65 247 -15 16 -48 38 -72
49 -50 22 -173 31 -239 17z m195 -346 c19 -5 23 -13 23 -48 -1 -62 -43 -102
-127 -121 -65 -14 -143 36 -143 90 0 74 117 111 247 79z"/>
<path d="M2837 640 c-126 -32 -220 -136 -236 -263 -19 -147 47 -275 174 -337
43 -21 64 -25 150 -25 90 0 106 3 157 28 56 28 132 101 125 121 -2 6 -29 18
-61 27 l-58 18 -33 -33 c-88 -88 -240 -56 -279 59 l-14 40 244 3 244 2 0 54
c0 122 -75 240 -181 286 -59 25 -173 35 -232 20z m173 -132 c40 -28 67 -63 76
-100 l6 -28 -166 0 c-96 0 -166 4 -166 9 0 39 55 115 95 131 41 18 120 11 155
-12z"/>
<path d="M4237 634 c-29 -9 -65 -31 -92 -58 l-45 -43 0 54 0 53 -75 0 -75 0 0
-310 0 -310 80 0 80 0 0 182 c0 173 1 183 24 222 25 43 88 86 124 86 37 0 71
-22 87 -55 12 -26 15 -73 15 -234 l0 -201 80 0 80 0 0 181 c0 169 1 184 22
221 25 43 90 88 129 88 14 0 35 -7 48 -16 44 -31 51 -69 51 -279 l0 -195 81 0
81 0 -4 243 c-3 235 -4 243 -28 292 -34 69 -90 98 -175 92 -71 -5 -129 -32
-176 -82 -36 -37 -49 -43 -49 -21 0 24 -42 68 -84 87 -49 22 -113 23 -179 3z"/>
<path d="M5302 640 c-58 -12 -151 -56 -158 -74 -5 -12 30 -96 40 -96 2 0 34
14 70 31 59 28 75 31 138 27 64 -3 73 -7 99 -36 22 -24 29 -42 29 -72 l0 -40
-42 7 c-24 5 -79 8 -124 7 -68 0 -90 -5 -138 -28 -199 -98 -123 -356 105 -356
63 0 148 32 184 70 33 35 45 38 45 11 0 -51 67 -88 137 -75 l33 6 0 62 c0 49
-4 63 -19 73 -17 11 -20 27 -23 170 -3 171 -9 191 -65 247 -15 16 -48 38 -72
49 -50 22 -173 31 -239 17z m195 -346 c19 -5 23 -13 23 -48 -1 -62 -43 -102
-127 -121 -65 -14 -143 36 -143 90 0 74 117 111 247 79z"/>
<path d="M8847 640 c-126 -32 -220 -136 -236 -263 -19 -147 47 -275 174 -337
43 -21 64 -25 150 -25 90 0 106 3 157 28 56 28 132 101 125 121 -2 6 -29 18
-61 27 l-58 18 -33 -33 c-88 -88 -240 -56 -279 59 l-14 40 244 3 244 2 0 54
c0 122 -75 240 -181 286 -59 25 -173 35 -232 20z m173 -132 c40 -28 67 -63 76
-100 l6 -28 -166 0 c-96 0 -166 4 -166 9 0 39 55 115 95 131 41 18 120 11 155
-12z"/>
</g>
</svg>
